<svg clip-rule="evenodd" fill-rule="evenodd" stroke-linejoin="round" stroke-miterlimit="2" viewBox="0 0 700 50" xmlns="http://www.w3.org/2000/svg"><path d="m135.984 19.883h144.654v62.516h-144.654z" fill="#e4342a" transform="matrix(.691302 0 0 .799791 -94.0063 -15.902)"/><path d="m135.984 19.883h144.654v62.516h-144.654z" fill="#304691" transform="matrix(.691302 0 0 .799791 5.99369 -15.902)"/><path d="m135.984 19.883h144.654v62.516h-144.654z" fill="#27a15c" transform="matrix(.691302 0 0 .799791 105.994 -15.902)"/><path d="m135.984 19.883h144.654v62.516h-144.654z" fill="#fcc231" transform="matrix(.691302 0 0 .799791 205.994 -15.902)"/><path d="m135.984 19.883h144.654v62.516h-144.654z" fill="#e21968" transform="matrix(.691302 0 0 .799791 305.994 -15.902)"/><path d="m135.984 19.883h144.654v62.516h-144.654z" fill="#2d8c8d" transform="matrix(.691302 0 0 .799791 405.994 -15.902)"/><path d="m135.984 19.883h144.654v62.516h-144.654z" fill="#5d5c5c" transform="matrix(.691302 0 0 .799791 505.994 -15.902)"/></svg>