<svg height="5333.333" viewBox="0 0 4000 4000" width="5333.333" xmlns="http://www.w3.org/2000/svg"><path d="m2372 12.1c-9.7 1.1-17.3 2.6-27.2 5.4-9.5 2.7-27.3 10.5-32.3 14.1-1.6 1.1-3.7 2.4-4.5 2.7-2.5.9-15.9 11.3-21.9 17-25.7 24.5-40.6 54.8-44.6 90.5-.6 5.3-.6 24 0 28.7.5 4.1 1.2 8.6 2.1 14.2.3 1.7 1.4 6.2 2.5 10 1.2 3.7 2.3 7.8 2.6 9.1.3 1.2.9 2.5 1.4 2.8s.9 1.2.9 2.1c0 2.1 7.8 17.6 12.7 25.2 11.9 18.5 32.3 37.6 51.6 48.3 16.3 8.9 36.8 15.5 54.2 17.4 8.3.9 28 1 35 .1 51.6-6.4 97.1-40.5 117-87.7 2.9-6.8 8.2-24.3 9-29.5 2-12.8 2.3-17.7 2-30.5-.2-8-.6-15.6-.9-17-.4-1.4-.9-3.9-1.2-5.5-10.1-56.4-55.8-102.9-112.9-114.9-13.9-2.9-31.9-3.9-45.5-2.5zm-1600.2 52.3c-.1.2-3.2.6-6.8 1-3.6.3-7.6.8-9 1-1.4.3-4.3.7-6.4 1.1-3.2.4-11.8 2.2-19.7 4-5.3 1.2-17.9 5.2-27.4 8.7-45.2 16.8-84.3 46.2-114.7 86.3-2.4 3.3-4.7 6.4-4.9 7-.2.5-2.6 4.3-5.3 8.4-9.1 13.7-23.1 43.2-26.1 55.1-.2.8-1.6 5.5-3 10.5-1.5 4.9-2.9 9.9-3.1 11-6.9 34.5-7.7 60.7-2.9 95.5 1.6 11.4 9.6 40.7 13.5 49.5.5 1.1 2.5 5.8 4.5 10.5 4.4 10.3 11.4 23.4 16.6 31.4 2.2 3.2 3.9 6 3.9 6.3 0 .4 9.5 13.2 15.4 20.7 4.5 5.8 24 25.4 31.6 31.8 29.4 24.8 65.8 43.3 102.6 52.3 12.9 3.1 13.9 3.3 19 4 2.1.3 4.8.7 5.9 1 6 1.2 19 2 35 2s34.9-1 36.4-2c.3-.1 3.1-.6 6.1-1 21.7-2.6 53-13 77-25.6 32.9-17.3 63.1-43 84.9-72.4 18.9-25.4 33.2-54.7 40.7-83.5 3.3-12.3 4.7-19.2 6.8-34 2.3-15.5 2.3-50.5.1-62.1-.5-2.4-1.6-9.4-1.9-11.9-1-7.8-6.8-29.6-10.9-41-9.9-27.7-25.8-55.1-44.9-77.3-6.7-7.8-20.7-21.8-27.7-27.7-3-2.5-5.9-5-6.5-5.5-7-6.5-30.3-21.3-45.4-28.9-19.4-9.7-46.4-19.1-61.2-21.2-1.9-.3-5.1-.9-7-1.4s-5.9-1.2-8.9-1.5c-3-.4-6.3-.9-7.5-1.2-2.2-.6-48.2-1.4-48.8-.9zm2423.2 80.3c-18.3 2.5-26.1 4.1-40.2 8.4-30 9.2-57.3 23.6-81.8 43.2-8.6 6.9-28.6 26.8-34.5 34.2-2.2 2.7-4.2 5.2-4.5 5.5-1.5 1.2-12.2 17.3-17.3 26-14.5 24.8-26.1 58.4-29.2 84-.3 2.5-.8 6.5-1.2 9-1 6.2-1 41.9.1 51 5 45.1 24.9 91 54.9 126.4 14.2 16.7 36.6 36.2 54.7 47.5 19.8 12.4 48.6 24.5 72 30.1 24.6 5.9 52.2 7.9 78.5 5.7 39.2-3.4 82.9-19.3 115-42 18.6-13.2 39.2-32.6 51.7-48.7 28.4-36.7 45.7-80.6 49.3-125.5 1.2-14.9.7-43.4-1-49.5-.2-.8-.6-3.7-1-6.4-1.6-13.1-7.6-35.4-13.4-50.1-6.3-15.8-21.7-43.5-29.8-53.5-.6-.8-4.1-5.1-7.6-9.5-24.2-30.3-59.4-55.9-97.2-70.8-8.9-3.5-30.1-10.1-36-11.1-5.5-1-20.1-3.6-23.6-4.2-8-1.3-47.6-1.1-57.9.3zm-1459.2 24.9c-.2.2-3.3.5-6.8.8-23.1 1.7-50.7 10-73.3 22-4.3 2.2-9 4.7-10.4 5.5-2.1 1.1-14.1 9.3-18.8 12.8-13.8 10.4-35.8 34.1-43.5 46.8-1.3 2.2-2.7 4.2-3.1 4.5s-3.2 5.1-6.2 10.8c-15.5 28.9-23.8 60.8-24 92.2-.1 10.6 1 26.8 2.2 32.3.5 2.3 1.2 5.9 1.5 8 1.3 8.6 7.3 27.7 11.5 37.1 8.6 18.8 12.1 25 21.1 37.6 10.1 14.1 16.1 20.8 31.1 34.5 27.7 25.3 70.6 44.1 109.9 48.3 14.9 1.6 43.6.7 56-1.8 3-.6 6.9-1.3 8.5-1.6 5.6-.9 26.7-7.5 32.9-10.1 30.8-13.4 53.7-29.9 76.1-54.7 10.7-11.9 27.2-38.5 32.5-52.6.7-1.9 1.9-5.1 2.7-7 5.4-13.4 10.7-37.3 11.8-53.5 1.4-20 .3-35.8-3.9-57-1.6-8.2-6.9-25.1-10.1-32-4-8.8-9.4-19.9-10.7-22-.7-1.1-2.6-4.3-4.2-7-9.7-16.2-30.5-39.5-45.9-51.4-25.6-19.7-57.4-34.1-86-39.1-2.9-.5-6.3-1.1-7.7-1.4-8.8-1.6-42.1-3.2-43.2-2zm653.5 171.6c-13.4 26.4-29.5 61-40.5 87.3-2.7 6.6-5.6 13.3-6.3 15-6.5 14.2-24.9 63.1-39.3 104-15.5 44.5-22.4 65.5-33.1 101.5-1.7 5.8-5.2 17.5-7.7 26s-6.2 21.6-8.1 29c-8.3 32.2-17.5 68.7-17.9 71-.3 1.4-1.1 5-1.9 8.1-1.2 4.4-6.7 30-9.1 41.4-.2 1.1-.6 3.1-.9 4.5-.8 3.6-1.4 7.1-2 10.5-.3 1.6-.8 3.7-1 4.5s-.7 2.8-1 4.5c-.2 1.6-.7 4.1-1 5.5-.5 2.4-.8 3.8-2.2 12-.3 1.9-.7 4.4-1 5.5-.2 1.1-.6 3.5-.9 5.4-.5 3.2-.8 4.6-1.8 10.1-.3 1.4-.8 4.3-1.1 6.5s-1.2 7.8-2 12.5c-1.6 9.8-2.4 14.9-3.1 20.5-.2 2.2-.7 5.2-.9 6.6-.3 1.4-.7 4.3-1 6.4-.2 2.2-.9 7.3-1.5 11.5-.5 4.1-1.2 9.7-1.5 12.5-.5 5-1.2 10.3-2.1 18-.3 2.2-.7 5.8-1 8-.2 2.2-.6 5.6-.9 7.5s-.7 6.2-1.1 9.5c-.3 3.3-.7 7.1-.9 8.5-.3 1.4-.7 5.4-1 9-.6 7.4-1.6 18.3-2 22-.2 1.4-.6 6.1-.9 10.5-.4 4.4-.9 9.6-1.2 11.5-3.2 21.8-3.9 169.6-1 205 .4 4.1.6 7.8 2.1 29 .3 3.6.7 8.5 1 11 .7 5.8 1.2 10.9 2 19 .3 3.6.8 8.1 1 10s.7 6.4 1 10 .8 8.1 1 10 .7 6.1 1 9.3.7 7.2 1 9c.2 1.8.9 7.7 1.5 13.2 1.4 12.3.9 9.3 6.9 44.5 3.8 22.6 3.5 20.6 7.1 41.5 1.7 9.9 3.3 19.3 3.6 21 .2 1.6.9 5.2 1.4 8 .5 2.7 1.2 6.8 1.6 9 .3 2.2 1.9 11.6 3.5 21 1.7 9.3 3.2 17.9 3.4 19 .3 1.7 3.9 21.6 5.2 28.5.2 1.3 3.3 20 6.9 41.5 3.6 21.4 6.7 40.1 6.9 41.4s.7 4.5 1.1 7 .8 5.5 1 6.6c.7 3.2 6.2 36.6 6.8 41 .3 2.2.8 5.1 1.1 6.5s.7 3.8 1 5.5c.2 1.6.9 6.4 1.5 10.5.7 4.1 1.3 8.5 1.5 9.7s.6 3.4.9 5c.3 1.5.8 4.6 1.1 6.8s.7 5.1 1 6.5.8 4.5 1 7c.3 2.5.7 5.4 1 6.5.2 1.1.7 4.2 1 7 .3 2.7 1 7.2 1.5 10 .8 4.4 1.7 10.9 2.5 17 .2 1.1.5 3.6.8 5.5.6 3.7 1.5 10.6 2.2 15.5.2 1.6.9 6.4 1.5 10.5s1.3 9.7 1.6 12.5c.3 2.7.9 7.2 1.4 10 .5 2.7 1.2 7.5 1.5 10.5.4 3 .8 6.6 1 8s.7 5 1 8 .7 7.1 1 9c.2 1.9.7 6.4 1 10 .4 3.6.8 7.6 1 9s.6 5.4 1 9c.3 3.6.8 7.6 1 9s.6 5.4 1 9c.3 3.6.7 8.5 1 11 .2 2.5.7 7.6 1 11.5.3 3.8.8 9.5 1 12.5.3 3 .7 9.1 1 13.5s.7 11.4 1 15.5c.6 9.1 1.4 27.5 2 44.2.6 15 .6 87.8.1 100.3-1 21.8-1.7 36.3-2.1 40.5-.2 2.5-.7 8.3-1 13s-.8 10.1-1 12c-.3 1.9-.7 6-1 9s-.8 7.7-1.1 10.5c-.4 2.7-.8 6.1-.9 7.5-.4 3.4-2.5 18.2-2.9 20.6-.2 1-.7 4.1-1 6.9-.4 2.7-1.8 10.6-3.2 17.5-4.1 20.5-4.2 18.4 1.3 21.5 2.6 1.5 5.5 3.4 6.4 4.2 1.4 1.2 2.1.8 5.5-2.9 2.2-2.4 6.6-7.7 9.9-11.8s6.2-7.7 6.5-8c.8-.7 9.5-13.1 15.6-22.2 29.2-43.4 55-104 74-173.8 2-7.4 3.7-14 3.8-14.5.1-.6.5-1.9.9-3 .3-1.1.8-3.1 1.1-4.5.2-1.4 1.1-5.4 2-9 .8-3.6 1.7-7.6 2-9 .2-1.4 1.1-5.7 1.9-9.5.9-3.9 1.8-8.6 2.1-10.5s1-6 1.6-9 1.3-6.9 1.5-8.5c.3-1.7.7-4.1 1-5.5 1-4.6 1.3-6.7 2-12.1.3-3 .8-6.5 1-7.9.6-3.8 2.4-18 2.9-22.5.4-3.5.8-6.7 2.1-20.5 1.6-15.9 3.4-44.1 4-62 1.1-31.1 0-93.3-2-116-1.4-15.8-1.6-18.8-2-22.5-.8-7.6-2.6-24-3-27-.2-1.7-.9-6.8-1.5-11.5s-1.3-9.6-1.5-11l-2-14c-.9-6.3-2.3-14.5-3.1-18.2-.7-3.7-1.6-8-1.9-9.5-.6-3.7-2.3-12.3-2.9-14.8-1.1-4.9-3.8-17.2-4.2-19.5-.4-1.9-5.3-23.2-7.9-34-2-8.5-8.2-31.2-12.9-47-.7-2.5-5.7-18.1-11-34.8s-11-34.9-12.7-40.5c-4.2-13.9-6-20-10.9-35.7-2.3-7.4-4.3-14.2-4.5-15s-2-6.9-4-13.5c-2.1-6.6-3.9-12.9-4.2-14s-1.6-5.5-2.9-9.9c-2.3-7.5-4-14.1-5-19.6-.3-1.4-.9-4.1-1.4-6-1.4-5.6-8-38.7-10.6-54-.3-1.4-1.3-7.2-2.4-13-3.2-17.9-6.5-39.5-8-51-.5-4.7-1.2-9.6-1.4-11-.7-4-1.5-11.1-2.1-17.5-.4-3.3-.8-7.1-1-8.5s-.7-5.2-1-8.5-.7-7.6-1-9.5-.7-6.7-1-10.5c-.4-3.9-.8-8.6-1-10.5-.3-1.9-.7-7.8-1-13s-.8-11.1-1-13-.7-8.2-1-14-.8-14.3-1-19c-2.5-42.8-2.5-143.2-.1-176 .3-3 .7-11.6 1.1-19 1-20.8 1.9-34.5 3-45 .2-1.9.6-7.3.9-12 .4-4.7.8-10.1 1-12 .5-3.7 1.5-15.3 3.1-35 .7-8.9 1.4-16.2 2-21 .3-1.9.7-5.5 1-8s.7-6.1 1-8c.2-1.9.7-6 1-9 .4-3 .8-6.2 1-7s.7-4.4 1-8 .8-7.2 1-8 .7-4 1-7 .8-6.6 1-8 .6-4.5 1-7c1.5-12.1 2.7-20.2 4.1-27.5.7-4.4 1.6-9.8 1.9-12s.8-5.1 1.1-6.5c.2-1.4.7-3.9 1-5.5.2-1.7.9-5.5 1.4-8.5.6-3 1.2-6.9 1.5-8.5.5-2.9 1.2-7.3 2.1-12.5.3-1.4 1.4-7.5 2.5-13.5 1.2-6.1 2.3-12.1 2.5-13.5.3-1.4 1-5 1.6-8s1.2-6 1.4-6.5c.1-.6.9-4.6 1.8-9s1.8-9 2.1-10.3c.2-1.3.6-3.1.9-4s.8-3.2 1.1-5 2.4-11.2 4.6-21c4-17.4 4.5-19.7 5.3-23.7.2-1.1 2.7-11 5.6-22 2.8-11 5.3-20.7 5.5-21.5.1-.8 1.9-7.8 4-15.5 2-7.7 3.8-14.7 4-15.6.2-.8 2-7.5 4-14.9s3.9-14.1 4.1-14.9c3-12 9.3-32.7 18.5-60.8 3.8-11.7 6.9-21.5 6.9-21.9 0-.5-12.4-6.4-13.5-6.4-.2 0-1.7 2.4-3.2 5.2zm-1651 247.7c-8.2 3.3-11.2 5-10.9 6.1.6 2.2 8.5 27.6 10.7 34.4 1.1 3.3 4.4 14.8 7.4 25.5 3.1 10.8 6.4 22.5 7.5 26.1 2 6.7 9.6 35.2 10.4 39.2.3 1.3 1 3.9 1.5 5.8 2.8 10.6 8.2 31.8 8.5 33.5.2 1.1 1.1 4.7 1.9 8 .9 3.3 1.8 7.1 2.1 8.5.2 1.4 1.8 8.1 3.6 15s3.4 13.6 3.6 15c.3 1.4 2.5 10.8 5 21 4.1 17 18.8 82.1 21.3 95 .6 3 1.3 6.4 1.5 7.5s2 9.9 4 19.5c1.9 9.6 5.1 25.8 7 36 4.4 22.9 4.2 22.2 6.6 35.5 1.1 6 2.2 12.1 2.5 13.5.2 1.3.7 4.2 1.1 6.4.3 2.2.7 4.3.9 4.6.2.4.7 2.9 1 5.6.4 2.7.8 5.7 1.1 6.6.8 2.7 1.3 5.7 2 11.7.3 3.1.8 5.8.9 6.1.2.3.6 2.6 1 5 .3 2.5 1.3 8.5 2.1 13.5.8 4.9 1.7 10.2 2 11.7.2 1.6.6 4 .9 5.5.2 1.6.7 4.8 1 7.3.4 2.5.8 5.4.9 6.5.2 1.1.7 4.2 1.1 7 .4 2.7.9 6.1 1.1 7.5s.6 4.5.9 7 .8 5.4 1 6.5.7 4.2 1 7c.4 2.7.8 6.1 1.1 7.5.2 1.4.9 6.1 1.5 10.5s1.2 8.2 1.4 8.5c.1.3.6 3.6 1 7.5.4 3.8.8 7.2 1 7.5.2.4.6 2.6.9 5.1.4 2.4.8 6 1.1 7.9.2 1.9.7 5.7 1 8.5.4 2.7.8 6.1 1 7.5s.7 5.4 1 9 .7 7.8.9 9.5c.2 1.6.7 5.7 1 9 .4 3.3.8 7.6 1.1 9.5.2 1.9.7 6.2 1 9.5s.8 7.6 1 9.5.7 6 1 9 .7 6.8.9 8.5c.2 1.6.7 6 1.1 9.7.3 3.7.7 7.5.9 8.5s.7 5.6 1 10.3c.4 4.7.9 10.3 1.1 12.5.7 7.3 1.6 16 2 20 .5 5.2 1.3 14.4 3 36.5.5 7.1 1.1 16.1 2 34 .4 6.3.8 13.7 1 16.5 1.4 17.9 2.3 31.3 3 46 .3 6.6.8 14.9 1 18.5.8 14.1 2.1 42.8 3.2 76 1.5 47.4.8 188-1.2 222.5-.2 2.7-.6 12.2-1 21-.6 15.9-1.1 25-2 37.5-.2 3.6-.7 10.8-1 16s-.8 12.6-1.1 16.5c-.9 10.9-1.1 14.3-1.8 24-.4 4.9-.9 10.1-1.1 11.5s-.7 7.4-1 13.5c-.4 6-.9 11.2-1 11.5-.2.3-.6 4.5-1 9.5-.4 4.9-.9 9.7-1 10.5-.2.8-.6 4.6-1 8.5-.3 3.8-.8 8.6-1 10.5s-.7 6-1 9-1.3 10.9-2.1 17.5c-2.2 18.4-2.3 18.6-2.9 24.5-.4 3-.8 6.6-1 8l-2 14c-.9 6.3-1.8 13.1-2.1 15s-.7 5.5-1 8c-.2 2.5-.7 5.6-.9 7s-.7 4.3-1 6.5-1 6.5-1.5 9.5c-1.1 6.7-1.5 8.7-3.5 21.5-.8 5.5-3.1 18.8-5 29.5s-3.7 21.1-4 23-.8 4.2-1 5-.6 3.1-.9 5-.8 4.6-1.1 6-1 5-1.6 8-1.2 5.9-1.3 6.5c-.3.9-1.2 5.4-2.3 11-.2 1.1-.6 3.6-.9 5.5s-.8 3.8-1 4.1c-.2.4-.6 2.4-.9 4.5-.4 2.2-.8 4.7-1.1 5.6-.3 1-.7 3-1 4.5-.4 2.6-5.2 24.5-9.5 43.3-1 4.7-3.7 16.6-5.9 26.5-5.5 24.4-8.1 33.9-15 55-3.2 9.9-9.7 30.1-14.5 45-8.7 27.1-23.4 72.1-26.2 80.5-9.8 29-22.3 65.8-31.8 93.5-6.4 18.7-13.7 39.8-16.1 47-4.3 12.3-8.7 26.5-15.5 49-1.7 5.5-4.1 13.6-5.4 18-2.3 7.4-12.3 44.1-13 47.5-.2.8-.9 3.5-1.6 6s-1.4 5.3-1.6 6.3c-.1 1-2.6 10.9-5.4 22s-6.8 28-9 37.7c-6.3 27.9-10.8 48.8-11.4 52.3-.3 1.8-1 5.7-1.5 8.7s-1.2 7.1-1.5 9-.7 4.6-1 6-.7 3.8-.9 5.5c-.5 2.8-1 6-2.1 12.2-.5 3.4-3.2 20.2-4 25.8-2.4 16.6-3.5 23.6-4 27.5-.3 2.5-1 7.2-1.5 10.5s-1.2 8.5-1.5 11.5-.8 6.6-1 8c-.5 2.8-1.1 8.8-2 17-.6 5.9-1.4 13.6-2 18.5-.2 1.6-.6 6.8-1 11.5s-.8 10.1-1 12c-.9 8.9-4.1 70.9-5.1 98-.5 14.6-.5 103.6 0 114 .3 4.7.8 15.5 1.1 24 1 24 1.5 32.9 3 51 2.5 30.6 3.4 41.6 4 46 .2 1.9.7 6.4 1 10s.8 7.6 1 9c.3 1.4.7 4.5.9 7s1 8.3 1.6 13c1.4 10.2 1.5 10.9 2.5 18.5.4 3.3.9 6.9 1.1 8s.7 4 1 6.5.8 5.4 1 6.5.7 4 1 6.5.7 4.7.9 5 .6 3 1 6c.3 3 1 7.1 1.5 9s1.1 5.3 1.4 7.5 1.2 7.6 2.1 12 1.8 9.1 2.1 10.5c1.5 8.2 4.8 23.4 6.5 30.9 1.1 4.7 2.2 9.4 2.4 10.4s.7 2.7 1 3.7.8 2.9 1 4.2c1.8 9.1 12.7 50.8 19 72.3 12.9 44.5 32.1 98.6 44.8 126.5 1.4 3 3.7 8.4 5.2 12 3.3 8 28.2 58.6 30.6 62 .9 1.4 3 5.1 4.7 8.2 2.6 4.8 6.1 10.6 17.5 29.3 12.5 20.5 45.7 65.9 56.6 77.5 1.2 1.3 2.3 1 8.5-2.4 3.9-2.1 9.2-5.1 11.7-6.7l4.6-2.9-1.3-6.2c-.7-3.5-1.5-7.7-1.7-9.3-.3-1.7-1.5-8.9-2.7-16-1.1-7.2-2.3-14.1-2.5-15.5-.5-3.5-3.3-24.5-4-30.5-.3-2.8-.8-6.1-1-7.5s-.7-5.7-1-9.5c-.4-3.9-.8-8.1-1-9.5-.3-1.4-.7-5.7-1-9.5-.5-6.7-.9-10.8-1.9-22-1.4-13.9-2.3-27.9-3.1-44.5-.3-7.4-.8-16-1-19-2.1-28.9-2.1-130.9 0-182.5.3-6.1.7-17.5 1-25.5s.7-17.9 1-22 .7-11.8 1-17c1.1-19.4 2.2-35.1 4-57.5.3-2.8.7-8.8 1-13.5s.8-9.6 1-11 .7-5.7 1-9.5c.3-3.9.8-8.4.9-10 .2-1.7.6-6.6 1-11s.9-9.1 1.1-10.5c.4-2.8 1.2-10.5 2-19.5.3-3.3.8-7.1 1-8.5s.7-5.7 1.1-9.5c.3-3.9.8-7.7.9-8.5.2-.8.6-4.4.9-8 .4-3.6 1.1-9 1.6-12s1.2-8.3 1.5-11.7.7-7 .9-8 .7-4.3 1-7.3c.4-3 .8-6.6 1.1-8 .2-1.4.6-4.5.9-7s1.5-10.8 2.6-18.5 2.3-15.8 2.6-18c1-7.6 1.4-10.1 3.5-23.5 1.1-7.4 2.5-16.4 3-20s1.1-7.2 1.4-8c.2-.8.7-4 1-7 .4-3 1.1-7.8 1.6-10.5.5-2.8 1.2-6.6 1.5-8.5s.9-6 1.4-9 1.2-7 1.5-8.8c.5-3.1 1-6.5 2-12 .2-1.5 1.1-6.8 2-11.7.9-5 1.8-10.1 2-11.5.6-4.4 1.6-10.4 2.5-15 .5-2.5 1.1-5.9 1.4-7.5.2-1.7 1.1-7.3 2.1-12.5 1.5-9.1 1.8-10.7 3-18.3.5-2.6 2.2-12.4 4.9-28.2.2-1.1 1.1-6.1 2.1-11 .9-5 1.9-10.1 2.1-11.5.5-2.7 3.1-17.2 3.8-20.5.2-1.1.7-4 1.1-6.5s.9-5.4 1.2-6.5c.2-1.1 1-5.8 1.9-10.5.8-4.7 2.1-11.7 2.8-15.5.8-3.9 2.2-11.1 3.1-16 .9-5 2-11 2.5-13.5s1.2-5.7 1.4-7.1 1.3-7.3 2.5-13c2.1-11 7-36.7 7.7-40.9.6-3.1 2.5-13.2 6.3-33 3.9-20.4 12.9-67.8 13.5-71 .2-1.4 1.1-6.3 2-11s1.9-10.1 2.2-12 .9-5.1 1.4-7 1.1-4.6 1.4-6c.2-1.4 2.3-11.7 4.6-23s4.3-21.2 4.5-22c1.2-6.1 16.5-82 16.9-84 .2-1.4 2.1-10.8 4.1-21 4.6-23.3 5.4-27.8 6-31.3l3.1-15.5c1.4-7 2.8-13.8 3-15.2.3-1.4.9-4.8 1.4-7.5.6-2.8 1.2-6.1 1.5-7.5.4-2.1 1.6-8.1 2-10 .1-.3.5-2.5.9-5 1.4-7.5 1.5-8.4 2.1-11 1-4.6 1.5-7.4 4.5-23 1.7-8.5 3.2-16.2 3.5-17 .2-.8.6-3.1.9-5s1.2-6.8 2-10.8c.9-4 1.8-8.9 2.1-11 .2-2 .6-4.6.9-5.7.2-1.1.7-4.2 1-6.8.4-2.7.9-5.6 1-6.5.2-1 .7-4.3 1.1-7.6.3-3.2.8-6.8 1-8 .2-1.1.6-4.4 1-7.1.3-2.8.8-6.4 1-8 .2-1.7.7-5.3 1-8 .6-4.7.8-6.4 1.9-14.8.3-1.7.8-5.7 1.1-8.7s1.2-10.5 2-16.5c.8-6.1 1.7-13.4 2-16.4.4-3 .8-6.2 1-7.2s.6-4.5 1-7.8c.3-3.3.8-7 1-8.3.3-1.3.7-4.7 1.1-7.6.3-2.9.7-6.1.9-7 .5-3 1.6-11.5 1.9-16.2.2-2.5.7-7.2 1-10.5 1.2-11.7 1.7-16.1 2.1-20.8.3-2.6.7-6.8 1-9.5.7-6.1 1.4-15 2-23.7.8-12.3 1.6-23.8 2-29 .3-2.8.7-9.5 1-15s.8-13.2 1-17c.4-7.7 1.5-33 2-47 2.5-71.7 2.5-209.8.1-234.5-.2-1.9-.7-8.5-1-14.5-.4-6.1-.9-13.5-1.1-16.5-.5-7.1-1.4-18.6-2-27.5-.3-3.9-.7-9.3-1-12-.3-2.8-.7-9-1-13.9-.4-4.9-.8-10.7-1-13-.3-2.3-.7-7.3-1-11.1-.3-3.9-.7-8.6-1-10.5-.2-1.9-.7-7.3-1-12-.4-4.7-.8-10.1-1-12s-.7-6.4-1-10-.8-7.9-.9-9.5c-.2-1.7-.7-6.4-1-10.5-.4-4.1-.9-8.6-1.1-10-.3-1.4-.7-5.5-1-9-.3-3.6-1-9.9-1.5-14s-1.2-9.8-1.5-12.5c-.3-2.8-.7-6.6-1-8.5-.2-1.9-.9-7.8-1.5-13s-1.3-11-1.5-12.8c-.8-6.5-2.6-19.8-3.1-23.7-1.1-7.3-1.2-8-1.8-14-.4-3.3-.9-6.7-1.1-7.5s-.7-3.8-1-6.5c-.4-2.8-2.5-16.5-4.7-30.5s-4.1-26.4-4.3-27.5c-.1-1.1-.5-3.6-.9-5.5-.3-1.9-1.7-9.8-3.1-17.5s-2.7-15.1-3-16.5-.7-4-1-5.7c-.3-2.7-1.1-6.7-2-11.3-.1-.3-.5-2.5-.9-5-2.9-17.1-8.5-46-12.8-66-2.8-12.9-5.4-25.3-5.8-27.5-.8-3.8-6.4-28-15.2-66-2.1-9.4-4.1-18.1-4.4-19.5s-.7-3.3-1-4.2-.6-2.5-.9-3.5c-2.5-12.7-7.6-32.5-18.6-72.8-2.1-7.8-5-18.6-6.4-24-1.5-5.5-3.8-14.1-5.2-19-1.3-5-2.8-10.6-3.3-12.5-.4-1.9-2.4-9.1-4.5-16-2-6.9-3.8-13.2-4-14-1.7-6.6-7.3-25.7-10.5-36-2.1-6.9-5.7-18.6-8-26s-6.2-20-8.8-28c-2.5-8-4.7-15-4.8-15.5-.3-2-22.8-69.3-29.6-89-9.1-26.4-11.5-33-21-58.5-4.4-11.8-8.1-22.2-8.3-23-1.8-7.3-38.3-96.7-55.3-135.5-10.7-24.2-13.3-30-22.2-49-2.3-5-5.7-12.3-7.6-16.3-1.8-3.9-3.9-7.2-4.6-7.1s-6.4 2.2-12.5 4.8zm960.2 11.3c-4.4 2.2-8.1 4.1-8.2 4.2-.2.2 13.6 33.6 15.7 38.1 2.6 5.5 19.1 47.2 26.6 67.5 5.8 15.7 8.6 23.3 15.6 43 11.5 32.2 31.3 91.8 34.8 104.5.4 1.6 4 13.3 8 26 4 12.6 8.5 27.3 10 32.5 1.6 5.2 4.4 14.7 6.3 21 3.5 11.4 11.6 39.1 12.3 42 .2.8 1 4 1.9 7s1.7 6.2 1.9 7 3 10.9 6.1 22.5c3.1 11.5 5.8 21.4 5.9 22 1.2 4.7 2.2 8.5 4.8 17.9 1.6 5.9 3.1 11.7 3.3 12.9.3 1.1.9 3.4 1.4 5.1.6 1.7 2.4 9.2 4.1 16.6 1.6 7.4 5.5 24.3 8.5 37.4 3 13.2 5.7 25 5.9 26.2.3 1.3.7 2.7.9 3.2.3.4.8 2.7 1.2 5.2s.8 4.8 1.1 5.1c.2.4.6 2.4 1 4.5.3 2.2 1.6 8.4 2.9 13.9 2 8.7 9.2 45.3 10 51 .2 1.6 4.2 21.7 6.2 31.5.3 1.4.6 3.4.8 4.5s1.3 7.4 2.5 14c1.1 6.6 2.3 13.1 2.5 14.5s1.6 9.2 3 17.5c1.3 8.2 2.7 17.1 3 19.6.3 2.6.8 5.8 1 7 .3 1.3.8 4.4 1.1 6.9s.7 5.2.9 6 .7 3.7 1 6.5c.4 2.7.8 6.1 1 7.5s.9 6.1 1.5 10.5 1.2 9.1 1.5 10.5c.4 2.6 3.1 24.7 4 33.5.3 2.7.8 6.6 1.1 8.5.8 5.8 1.2 9.1 1.9 17 .3 4.1.8 8.2 1 9s.7 4.6 1 8.5c.3 3.8.8 8.1 1 9.5s.6 6.1 1 10.5c.3 4.4.8 9.3 1 11 .2 1.6.7 6.6 1 11s.8 9.1 1 10.5.6 6.1 1 10.5c.3 4.4.8 9.3 1 11 .3 1.6.7 6.1 1 10 .2 3.8.7 9.7.9 13 .3 3.3.8 12.3 1.1 20s.8 19.2 1.1 25.5.7 16 .9 21.5c2.5 56.9 2.5 157.7 0 198-.2 3.8-.7 11.9-1 18-.3 6-.8 13.2-1 16-.4 4.9-1.1 13.6-2.1 26.5-.2 3.6-.7 8.7-.9 11.5-.2 2.7-.7 9.5-1 15-.4 5.5-.8 12-1 14.5s-.7 8.8-1 14c-.4 5.2-.8 11.1-1 13s-.6 6.9-1 11-.9 8.2-1 9.1c-.2.9-.6 4-1 7-.3 3-1 8.1-1.5 11.4s-1.2 8-1.5 10.5-.8 5.8-1.1 7.5c-.3 1.6-.7 4.6-1 6.5-.5 3.8-6.1 43.6-6.9 48.7-.6 3.7-1.3 8.8-1.9 13.5-1.8 12.4-4.1 27.8-5.6 36.8-.5 3-1.1 7.3-1.5 9.5-.3 2.2-.7 5.1-1 6.5s-.7 4.1-.9 6c-.4 3.4-3.2 21-4.2 26-.2 1.4-1.3 8.3-2.5 15.5-2.9 19-3 19.6-3.4 21.5-.2 1-.7 4-1.1 6.7-.3 2.6-.8 5.7-1 6.8s-.6 3.8-.9 6-.7 5.1-1 6.5c-.7 3.5-1.3 6.7-2.1 12-.7 4.7-.8 5.5-1.9 15.5-.3 3.3-.8 7.1-1 8.5s-.6 5-1 8c-.8 7.7-1.6 14.2-2.9 26-.3 1.9-.7 6.2-1.1 9.5-.8 7.3-1.1 10.7-2.4 21-.6 4.4-1.3 10.9-1.6 14.5-.4 3.6-.8 7.6-1 9-.6 4.7-1.5 12.5-2 19.5-.4 3.8-.8 9-1 11.5-.5 5.4-1.3 16.8-2 27-.3 4.1-.7 10.6-.9 14.5-.3 3.8-.8 11.3-1.1 16.5-.4 5.2-.8 11.1-1 13s-.6 10-1 18-.9 16.5-1.1 19c-2.2 34.7-2.2 155.4.1 197.5.1 2.7.6 11.5.9 19.5.4 8 .9 16.7 1.2 19.5.2 2.7.6 7.9.9 11.5s.7 10.3 1 15 .7 10.1 1 12c.2 1.9.7 6.6 1 10.5.4 3.8.8 8.6 1 10.5s.6 6.4 1 10c.3 3.6.8 8.1 1 10 .3 1.9.7 5.5 1 8s.7 5.6.9 7c.3 1.4.8 5.2 1.1 8.5s.8 7.3 1.1 9c.2 1.6.6 4.6.8 6.5.3 1.9.9 6.4 1.5 10s1.3 8.3 1.6 10.5c1.4 9.6 4.7 29.6 6 36 .8 3.8 1.7 8.6 2 10.5s1.5 7.8 2.6 13 2.2 10.6 2.5 11.9c20.2 96.3 45.1 172.5 77.4 237.1 17.1 34.3 17.7 35.3 20.6 33 .9-.8 2.4-1.9 3.4-2.5 1-.5 4-2.3 6.7-3.9l4.9-2.9-.7-5.1c-.4-2.8-1.2-9.2-1.9-14.1-.6-5-1.3-10.1-1.5-11.5-.3-1.4-.7-4.3-.9-6.5-.3-2.2-.7-5.6-1-7.5-.2-1.9-.7-7.1-1.1-11.5s-.9-8.7-1-9.5c-.2-.8-.6-5.1-1-9.5s-.8-9.1-1-10.5-.6-7.2-1-13c-.3-5.8-.8-12.5-1-15-.5-4.4-.6-7.1-2.2-40-1.4-32-.8-111.2 1.2-152 2.4-46.5 5.4-92.1 8.1-119.5.2-2.2.6-6.9.9-10.5 1-13 1.6-19.6 2-22 .3-1.4.7-5 .9-8 1.5-16.3 2.4-24.9 3.1-29 .2-1.4.7-5 1-8s.8-7.2 1-9.3c.3-2 .7-5.4 1-7.5.2-2 .9-8.2 1.5-13.7s1.3-11.1 1.5-12.5.7-5 1-8 .8-6.6 1-8 .6-4.3 1-6.5c.3-2.2.8-5.6 1-7.5s.7-5.3 1-7.5c.9-5.3 1.3-8.1 2-13.5.3-2.5 1.4-10.4 2.5-17.5 1-7.2 2.1-15.3 2.5-18 .7-5.7 1.4-10.9 2.1-14.5.2-1.4.6-4.5 1-7 .3-2.5.7-5.6.9-6.9s.7-4.5 1-7c.6-3.8 2.1-13.3 4.9-30.1.3-1.4 1-5.9 1.6-10 1.3-7.9 1.7-10 2.5-14 .2-1.4.7-3.9 1-5.5.3-1.7.7-3.9.9-5s.7-4 1.1-6.5.9-5.4 1.1-6.5c.4-2 3.1-18.3 4-24 .3-1.7 1.4-8.2 2.5-14.5s2.2-13.1 2.5-15 2.4-12.3 4.6-23c4.7-22.9 4.4-21.3 5.6-27 .6-2.5 1.3-6.2 1.6-8.2.3-2.1 1-5.7 1.5-8 .6-2.4 1.3-5.9 1.6-7.8 1.7-10.4 2.3-13.8 6.6-35.5 1.7-8.8 3.3-16.9 3.4-18 .2-1.1 1.5-6.7 2.9-12.5 3.2-13.4 12.1-53.5 14.7-66.5 1.1-5.5 2.2-10.9 2.5-12 .5-2.4 3.3-16 4-19.5.2-1.4 1.5-7.9 2.9-14.5 1.3-6.6 2.7-13.5 3-15.2.3-1.8 1.4-7.9 2.6-13.5 1.1-5.7 2.2-11.9 2.5-13.8s1.2-6.7 1.9-10.5c.8-3.9 2.4-12.6 3.5-19.5s2.2-13.6 2.5-15c1.1-6.3 3.5-20.9 4-24.5.3-2.3.7-5 .9-6 .2-1.1.7-4 1-6.5s.8-5.6 1.1-7c.2-1.3.7-4.2 1-6.5.3-2.2.8-5.1 1-6.5 1-5.2 2.3-16 3.1-24.5.1-1.7.5-5.3.8-8 .3-2.8.8-7.9 1.1-11.5s.8-8.1 1-10 .7-7.3 1-12 .7-9.9.9-11.5c.2-1.7.7-7.3 1.1-12.5.3-5.2.8-11.5 1-14s.7-9 1-14.5.8-11.8 1-14c2.5-25.8 2.5-168.1 0-194.5-.2-1.9-.6-7.1-.9-11.5-.4-4.4-.8-10-1.1-12.5-.7-7.1-1.4-14.9-2-23-.3-4.1-.8-9.5-1-12s-.7-7.9-1-12-.8-9.5-1-12c-.3-2.5-.7-7-1-10s-.7-7.6-1-10.3c-.6-5.4-1.2-11.8-2-19.7-.5-4.9-2.1-16.1-4.5-32-.5-3-1.3-8.7-1.9-12.5-1.1-7.7-7.9-48.5-8.7-52.5-.4-2.3-3.4-19-4.9-27-3.8-22.1-16.6-81.5-22.6-105.5-1.7-6.6-3.2-12.7-3.4-13.5-1.3-5.9-6.8-27.1-7.6-29.5-.5-1.7-3.2-11.1-6-21s-6.4-22.3-8.1-27.5c-1.6-5.2-4.7-14.9-6.8-21.5s-6.1-19.4-9-28.5c-17.9-56.8-52.9-146-79.6-202.9-2.4-5.1-4.4-9.5-4.4-9.6 0-.5-14-29.6-21.7-45-9.3-18.8-25.1-49.1-28-53.7-1.3-2.1-2.3-3.9-2.3-4.2 0-.5-21.5-39-25-44.6-.5-.8-3.3-5.6-6.1-10.5-9.3-15.8-29.3-47.5-39.7-63-5.6-8.3-10.6-15.7-11.2-16.5-.5-.8-4-5.8-7.6-11-3.7-5.2-8.8-12.4-11.2-16-2.5-3.6-10-13.9-16.6-22.8-6.7-9-13.4-18.3-15-20.5-1.6-2.3-5-6.7-7.5-9.7-2.6-3-8.1-9.6-12.1-14.5-22.8-27.6-40.1-46.6-42.2-46.4-.7 0-4.9 1.9-9.3 4.1zm1556.9 47.7c-1.6 2.1-3.6 4.9-4.4 6.1-.8 1.3-2.4 3.5-3.6 4.9-6.1 7.7-44.9 68.1-53.3 83-2.9 5.2-6.8 12.2-8.7 15.7-1.8 3.4-5.6 10.2-8.4 15-2.7 4.8-5 8.8-5 8.9 0 .2-6.5 12.6-14.5 27.6-13.4 25.2-30.4 58.9-37 73.4-1.5 3.3-6.2 13.6-10.5 23-4.2 9.3-9.4 21-11.5 26-5.4 12.9-9.4 22.2-12.1 28.2-1.3 2.8-2.4 5.6-2.4 6.1s-.6 2.2-1.4 3.8c-1.4 3-15 37.1-19.1 47.9-15.8 42.3-30.9 85.7-40.5 116.5-2.3 7.4-5.2 16.6-6.5 20.5-2 5.9-4 12.7-5.1 17-.5 1.9-6.6 22.1-9.4 31-1.6 4.9-3.1 10.1-3.4 11.5s-3.8 15.5-8 31.5c-5.8 22.7-15.4 61.7-20.1 82-1.2 5.2-7.7 34.3-8.1 36.5-.6 3.2-7.5 40.7-8 44-.3 1.4-1.1 5.9-1.9 10s-1.7 8.8-2 10.5c-.2 1.6-.7 4.1-1 5.5-.7 3.4-8.2 47.5-9 52.6-.3 2.3-.8 5.9-1 8-.3 2.2-1 6.4-1.5 9.4s-1.2 7.3-1.4 9.5c-.3 2.2-1 7.1-1.5 11-.6 3.8-1.2 9-1.5 11.5s-1.2 9.9-2 16.5c-2.5 19.8-3.1 25.7-4.1 37-.7 7.7-1.4 14.8-2 20.5-.6 5.5-1.2 12-2 22-1.1 14.3-1.4 18.5-2 28-.3 5.2-.8 11.1-1 13-.3 1.9-.7 8.2-1 14s-.7 14.5-1 19.5c-4.5 79.9-5.2 147.2-2 209.5.2 4.7.7 15.2 1 23.5.3 8.2.8 19 1 24 .2 4.9.7 15.1.9 22.5.3 7.4.8 14.4 1 15.5s.7 5.6 1 10c.4 4.4.9 9.8 1.1 12 .3 2.2.7 6.5 1 9.5.9 10.5 1.6 16.5 2.5 24 .5 4.1 1.2 9.8 1.5 12.6s.7 5.9.9 7 .7 5 1 8.6c.4 3.7.9 7.6 1.1 8.7s.6 4.6 1 7.8c.3 3.2.8 7.1 1 8.8.3 1.6 1.8 14 3.5 27.5s3.2 25.4 3.4 26.5.7 4.7 1.1 8c.4 3.2.9 6.8 1.1 8 .2 1.1.7 3.6 1 5.5.2 1.9.9 5.5 1.4 8s1.6 8.3 2.5 13c1.9 10.6 2.1 11.7 4.1 21.5.9 4.4 1.7 8.9 1.9 10s1.1 5.8 2 10.5 1.9 9.4 2.1 10.5 1 4.9 1.8 8.5c3.4 15.4 4.6 21.1 5.1 23.7.6 3.2.8 4.3 2.9 13.8 1.4 6.1 3 13.4 6.6 30.2 5.1 23.6 26.6 98.6 44.6 155.3 12.8 40.2 37.9 114.1 50.6 149 13.1 35.9 21.5 60.5 32.8 96 6.8 21.4 11.1 34.5 22.4 67.5 6.6 19.3 15.2 46.2 16.1 50.5.5 2.1 10.2 34 19.6 64.5 9.2 29.5 11.9 38.8 24 82 14.3 51.4 28.2 102 29.4 107.5.2.8 3.7 14.8 7.9 31 6.1 24.2 16.7 68.3 19 79 .3 1.4 1.5 6.5 2.6 11.5 3.9 16.4 14 63.4 16.4 76 .5 2.2 5.5 27.5 6.2 30.9.2 1.2 1.1 5.7 1.9 10.1 1.7 9.3 2 11.2 4.1 22 .8 4.4 2.2 11.8 3 16.5s1.7 9.6 1.9 11c.3 1.4 1.4 7.9 2.6 14.4 1.1 6.6 2.2 12.2 2.4 12.5s.6 2.8.9 5.6c.3 2.7.8 6.1 1.1 7.5.2 1.3.7 4.2 1 6.5.3 2.2 1 6.5 1.5 9.5 1.3 7.6 1.8 10.8 2.5 16 .3 2.5.8 5.2 1 6s.7 4.4 1 8c.4 3.6.8 6.7 1 7s.6 3.9 1 8 .8 7.7 1 8c.1.3.6 3.2.9 6.5.4 3.3.9 6.7 1.1 7.5s.7 4.6 1 8.5c.3 3.8.8 7.7 1 8.5s.6 4.9 1 9c.6 8.2 1.3 14.8 2 19.5.4 2.9.9 9.6 2 22.5 1.1 14.8 1.6 20.7 2 24.9.3 2.5.7 9.9 1 16.5.3 6.7.7 14.8 1 18.1 1.2 16.7 1.8 40 1.9 78.4.1 36.2.4 42.5 1.6 43.2.8.5 4.9 2.5 9 4.5 13 6.2 10.9 7.4 17.8-10.4 6.8-17.7 7.5-19.5 7.7-20.2.5-1.9 1.9-6 3-8.5 5.9-14.2 23.3-76.1 29.1-103.5 1.5-7.1 8.4-42 8.9-45 .3-1.9 1-6.1 1.6-9.3.5-3.2 1.2-7.4 1.5-9.5.2-2 .6-4.8.9-6.2s.7-3.9.9-5.5c.2-1.7.7-5 1.1-7.5s.8-5.4 1-6.5c.1-1.1.5-4.3.9-7 1-7.2 1.4-10.1 2.2-18 .3-3.9.8-7.7.9-8.5.2-.8.6-4.4 1-8s.9-7.6 1.1-9 .6-5.2.9-8.5.8-8.5 1.1-11.5.7-8 1-11c.2-3 .6-8 .9-11s.7-7.8 1-10.5c.3-2.8.7-8.8 1-13.5 1-15.9 1.6-25.5 2-30.5 2.2-26 2.2-133.7 0-167.6-.2-3.5-.7-12.3-1-19.4-.3-7.2-.8-15.7-1-19-.3-3.3-.7-9.8-1-14.5s-.7-10.5-1-13c-.2-2.5-.7-8.3-1-13s-.8-10.5-1-13c-.3-2.5-.7-7.4-1-11-.5-6.4-.9-10.4-2-21-.3-3-.8-7.5-1-10-.8-8-1.5-14.4-2-18-.4-3.3-1.4-12.2-2-18-.4-3.7-1.5-13-2-17-.3-1.9-.7-5.5-1-8s-.8-6.2-1.1-8.3c-.6-3.9-.7-4.8-1.9-14.2-.3-3.3-.9-7.1-1.1-8.5-.6-3.3-1.4-9.7-1.9-14-.2-1.9-.9-6.7-1.5-10.5-.6-3.9-1.3-8.1-1.5-9.5-.7-4.8-1.7-11.5-2-14-.4-2.8-1.4-10-2.1-14.5-.3-1.7-1.1-6.6-1.9-11s-1.7-9.6-2-11.5c-1.1-7.1-2.6-15.6-3.5-20.5-.6-2.8-3.2-16.7-6-31-6.2-32.5-5.5-29.1-8-41.5-2.2-11.4-2.7-13.9-3.5-18.5-.4-1.7-2-9.5-3.6-17.5-3.8-18-4-19.3-4.3-20.5-.2-.6-.6-2.4-1-4-.4-1.7-1.2-4.8-1.7-6.9-.6-2.2-1.3-4.9-1.5-6-1.5-6.7-2.4-10.7-3.8-16.1-2.3-9.1-16.5-67.3-17-69.8-.2-1.2-1.8-7.8-3.6-14.7-1.7-6.9-3.3-13.2-3.5-14-1.2-5.2-7-26-11.3-40.5-2.7-9.4-8-27.4-11.6-40-3.7-12.7-7.8-26.6-9.2-31-3.2-10.4-23.5-81.4-24-84-.2-1.1-1.3-5.1-2.4-9-3.2-11.2-9-32.4-11-40-1-3.9-4.1-15.3-6.9-25.5-4.9-17.8-5.8-21-8.6-31-5.2-18.2-13.5-52.9-15-63-.2-1.4-.6-3.6-.9-5-.9-4.1-9.4-47.3-9.9-50-1.1-5.8-3.9-18.8-4.7-22-.5-1.9-1.1-5.1-1.4-7s-1.6-8.9-3-15.5c-1.3-6.6-3.2-16.1-4-21-.9-5-1.8-10.1-2.1-11.5-1-5.2-6.9-40.5-7.9-47.5-.2-1.7-.9-5.9-1.5-9.5s-1.3-8.8-1.6-11.5c-.3-2.8-.8-6.4-1.2-8-.3-1.7-.7-4.1-.8-5.5-.8-7.4-1.5-12.7-1.9-14.5-.2-1.1-.7-4.7-1.1-8-.4-3.2-.8-6.6-1-7.5-.1-.8-.6-4.2-.9-7.5-.4-3.3-.9-7.1-1.1-8.5-.3-1.4-.7-5.2-1-8.5-.2-3.3-.7-7.6-.9-9.5s-.7-6.4-1.1-10-.9-7.2-1-8c-.2-.9-.6-4.9-1-9-.3-4.1-.8-8.6-.9-10-.2-1.4-.7-6.1-1.1-10.5s-.8-9.4-1-11c-.4-2.9-1.1-10.8-2-20.5-.2-2.5-.7-7.7-.9-11.5-.6-7.7-1.5-18.5-2.1-25.5-.3-2.5-.7-7.4-1-11-.8-10.9-1.6-20.3-2-25-1.4-15.7-1.5-18.3-3.1-65-.3-10.7-.8-22.9-.9-27-2.2-54.7-2.2-187.3 0-225.5.2-3.9.7-13.8 1-22 .6-15 1.1-24.9 2-38 .3-3.9.7-10.8 1-15.5s.8-11.7 1-15.5c.3-3.9.7-10.4 1-14.5.2-4.1.7-12 1-17.5s.7-12.3 1-15c.2-2.8.7-9.1 1-14 .4-5 .8-10.1 1-11.5.3-1.4.7-6.1 1-10.5s.8-9.1 1-10.5.7-6.6 1.1-11.5c.3-5 .8-9.7.9-10.5.2-.8.6-4.4.9-8 .7-6.8 2.3-22 3.1-30.5.3-2.8.8-7.3 1-10 .3-2.8.7-7.1 1-9.8.3-2.6.7-7.1 1-10 1.7-16.5 5.4-45.6 7-54.7.2-1.4.7-5 1-8s.8-6.6 1-8 .7-4.5 1-7c.4-2.5 1.2-8.8 2-14s1.7-12.2 2.1-15.5c.3-3.3.8-6.9 1-8s1.1-6.7 1.9-12.5 1.8-12.1 2.1-14 .7-5.1 1-7c.2-1.9 2.5-15.7 5-30.5 5.5-32.8 5.3-31.7 5.9-35.8.3-1.7.8-4.3 1-5.7.3-1.4.7-3.9.9-5.5.2-1.7.9-5.8 1.5-9.2.6-3.5 1.3-7.3 1.5-8.5.4-2.1 1.1-6.4 2.2-12.3.2-1.1 1.1-6.1 1.9-11 .9-5 2.2-12.4 3-16.5s1.7-9.1 2-11c.5-3.2 6.1-32.4 7-36.1.2-.9.6-3.2.9-5 .3-1.9.8-4.5 1.1-5.9s1-5.2 1.6-8.5 2.1-11 3.4-17c1.3-6.1 4.3-19.8 6.5-30.5 2.3-10.7 4.3-20.2 4.5-21s1.1-4.9 2-9 1.8-8.2 2-9c2.7-11.5 5.8-24.9 6-26.3.2-1 .7-2.7 1-3.7s.7-2.7.9-3.7c3.3-16.2 31.3-121.1 33.3-124.5.5-.9-1.3-1.7-12.7-5.4-4.7-1.5-9-2.9-9.6-3.1s-2.4 1.4-4 3.6z"/><path d="m1493.5 749.1c-9.9.7-20.7 1.9-21.5 2.4-.3.2-2.6.6-5 1-9.3 1.3-33.3 8.3-41.5 11.9-1.6.8-5.5 2.4-8.5 3.7s-7.3 3.3-9.5 4.5-6.5 3.5-9.5 5.1c-5.3 2.8-18.8 11.3-21.3 13.3-.7.6-4.1 3.3-7.7 6.1-10.1 7.9-22.3 19.4-29.7 28.2-3.7 4.4-7.4 8.6-8.2 9.4-4 4.1-18.6 27.7-24.4 39.4-10.7 21.8-17.1 42.3-21.1 68.4-2.6 17.1-2.2 48.4.9 64.5.2 1.4.7 3.8 1 5.5 3.4 20.4 12.7 46.3 23.9 66.9 16.9 31 43.2 59.2 73.6 79.2 30.1 19.7 62.4 31.4 99 35.7 11.5 1.4 42.6 1.5 50.5.2 2.2-.3 8.3-1.3 13.5-2.1s10.9-1.9 12.5-2.4c1.7-.5 4.1-1.1 5.5-1.4 8.2-1.6 25.4-7.6 37-12.9 3.6-1.7 6.7-3.1 7-3.2.7-.2 11.2-5.8 13.1-7 .9-.5 3.1-1.8 4.9-2.9 4.1-2.3 17.1-11.3 21.9-15.1 26.5-21.4 47.4-46.8 61.6-75.4 22.6-45.3 28.9-90.2 20-142.1-4.1-23.7-17-56-31.3-78-15.2-23.6-38.2-47.3-61.2-63.3-24.3-16.7-56.3-30.5-82-35.3-1.4-.2-4.5-.8-7-1.4-14.3-3-39.1-4.3-56.5-2.9zm1029.2 78.5c-.1.1-3.8.5-8.2.9-4.4.3-9.8 1-12 1.5s-5.7 1.1-7.8 1.4c-2.2.4-7.8 1.8-12.6 3.1-39.8 11.5-74 35-98.5 68-6.7 8.8-17.6 26.3-17.6 28.1 0 .2-1.5 3.6-3.4 7.6-4.2 9.1-9.1 24.2-11.1 33.8 0 .3-.5 2.3-.9 4.5-1 4.4-1 4.3-2.2 13.5-1.5 11.7-.8 47.9 1.1 50.9.1.4.6 2.7.9 5.3 1.6 12.2 8.8 32.6 17.3 49.3 2.6 4.9 5.4 10.1 6.3 11.5s3 4.5 4.6 7 3.1 4.7 3.4 5 2.7 3.4 5.4 7c10.5 13.8 31.7 32.4 48.6 42.7 6.2 3.8 15.4 8.4 26 13.1 9.7 4.3 33.2 10.7 43 11.8 2.5.3 7.9.8 12 1.3 10.9 1.2 34.6.5 44-1.3.8-.1 3.5-.6 6-1 6.9-1.1 7.2-1.2 12-2.5 45.5-12.4 83.1-38.7 108-75.5 14.8-21.9 24.1-44.7 29.4-72.2 1.4-7.4 2.1-17 2.1-30.4 0-14.2-1-29.4-2.1-31.1-.2-.4-.6-2.4-.9-4.5-1.9-12.9-10.1-35.8-18.2-50.9-4.7-8.6-13.7-22.7-16.5-25.6-.7-.8-2.9-3.4-4.8-5.9-5.6-7.3-20.8-21.7-30.5-29-18.8-14.1-45.9-27.1-65.5-31.6-1.9-.4-3.9-.9-4.5-1-5-1.3-17.4-3.4-23.5-4-7.2-.6-28.7-1.3-29.3-.8zm-1048 433.1c-12.1 19.8-26.7 44.3-26.7 45 0 .4-.6 1.4-1.4 2.2-.7.9-3 4.7-5.1 8.6-2.1 3.8-4.1 7.4-4.5 8-.4.5-1.9 3-3.2 5.5-1.4 2.5-3.5 6.3-4.8 8.5-1.2 2.2-3.8 6.9-5.8 10.5-1.9 3.6-4.2 7.8-5.2 9.5-1 1.6-3.5 6.4-5.7 10.5s-5.7 10.6-7.8 14.5c-2.1 3.8-10.8 20.9-19.4 38-14.5 28.7-21.3 42.7-32.1 66-8.4 18-9.9 21.2-15 33-2.9 6.6-6.3 14.3-7.6 17.2-1.3 2.8-2.4 5.4-2.4 5.7s-1.3 3.5-3 7.1c-1.6 3.6-3 6.8-3 7 0 .3-.9 2.4-2 4.8-3.7 8.1-23 56-23 57.2 0 .4-.7 2.1-1.5 3.8-6.1 13-33.8 92.1-46.9 133.7-3.5 11.3-8.7 27.7-11.4 36.5-12 38.3-32.5 114.9-36.6 137-.2 1.1-.9 3.8-1.5 6-.5 2.2-1.3 5.5-1.6 7.4s-.8 3.7-1 4.1-.7 2.1-1 3.8c-.3 1.8-1.2 6-2 9.4-.8 3.5-1.6 7.4-1.9 8.8s-3.2 15.8-6.5 32-6.2 30.8-6.6 32.5c-.3 1.6-1.4 7.7-2.5 13.5-1.7 9.9-2.2 13.1-3.6 23.2-.3 2.4-.7 5-.9 5.8s-.7 3.5-1 6-.8 6.2-1.1 8.3c-.3 2-.7 4.7-.9 6-.3 2.6-1.5 11.2-2.1 14.7-.5 3.3-2.2 16.4-2.8 21.5-.3 2.2-.8 6-1 8.5-.3 2.5-.8 6.1-1.1 8-.9 7-2.2 17.8-2.9 25.2-1.2 12.1-1.8 17.4-2.1 19.8-.2 1.4-.7 6.1-1 10.5s-.8 9.6-1 11.5c-.6 5.3-1.8 20.4-3 40-2.6 41.7-2.6 143.6-.1 168.5.3 2.2.7 7.4 1.1 11.5.6 7.3.9 11.4 2 23 .7 8.1 1.3 15.5 2 24.5.3 4.4.8 9.6 1 11.5.3 1.9.7 7.1 1.1 11.5.3 4.4.7 9.6.9 11.5s.7 6.4 1 10 .7 8.3 1 10.5c.2 2.2.7 6.7 1 10s.8 8 1.1 10.5.7 6.5 1 9c.2 2.5.6 6.3.9 8.5.2 2.2.7 6.9 1 10.5s.8 8.3 1.1 10.5c.9 7.5 1.3 11 1.9 18 .3 3.8.8 7.7 1 8.5s.7 6.4 1 12.5c.4 6 .8 11.7 1 12.6.2.8.6 6.2 1 12 .3 5.7.8 12.9 1 15.9.4 6.5 1.5 27.1 2 38.5.2 4.4.7 15.6 1.2 25 1.6 33.9.9 138.9-1.2 167.4-.5 6.5-1.7 26.7-2 32.6-.4 8.3-1.6 22.8-2 25.5-.2 1.4-.7 6.3-1 11-.4 4.7-.9 9.8-1.1 11.5-.2 1.6-.6 5.7-.9 9-.6 5.7-.8 7.9-1.9 17-.3 2.2-.8 6.4-1.1 9.4-.4 3-.8 6.2-1 7.2s-.6 4.5-1 7.8c-.3 3.3-.8 7-1 8.2-.3 1.3-.7 4.1-1 6.4-.9 5.9-1.5 9.7-2 12.5-.3 1.4-.7 4.7-1.1 7.5-.6 4.8-.8 5.9-1.8 11.5-.3 1.4-.8 4.2-1.1 6.2-.2 2.1-.9 5.7-1.4 8-.5 2.4-1.2 6.3-1.6 8.8-.3 2.5-1 6.1-1.5 8s-1.1 4.8-1.4 6.5c-.2 1.6-1.4 7.4-2.5 12.9-2.9 13.5-3 14.2-3.6 17.3-1.9 9.3-14.7 59.3-20.2 78.3-12.3 42.9-22.7 72.7-38 109-9.2 21.8-28.1 60-34.3 69-.9 1.4-2 3.2-2.3 4-.4.8-1.5 2.7-2.5 4.2-.9 1.5-3.6 5.7-6 9.5-2.3 3.7-5.7 9.1-7.6 11.9l-3.4 5.1 9.1 7.5 9 7.5 6.1-3.4c18-10.1 50.8-35.4 68.6-52.8 8.7-8.5 22-22.3 30.4-31.5 3.2-3.6 7.5-8.3 9.5-10.5 3.3-3.6 12.9-14.6 18.9-21.9 5.2-6.2 24.2-31.7 30.4-40.6 13.3-19.5 33.7-52.9 47.5-78 4.9-8.8 21.6-41.9 24.7-49 1.6-3.6 4.9-10.8 7.4-16 5-10.9 21.4-51.1 26.2-64.5 7.4-20.6 9.3-26.3 11.1-32 1-3.3 2.7-8.7 3.9-12 4.4-12.7 18.2-61.6 23.5-83.5 5.1-21.3 16.7-76.3 18-85.5.3-2.2 1-6.3 1.5-9 .6-2.8 1.4-8.2 2-12 .5-3.9 1.2-8.1 1.4-9.5.5-2.3 3.1-22.1 4.1-30 .5-4.5 1.5-11.8 2-15 .2-1.4.6-5.9 1-10 .3-4.1.8-9.1 1-11 1-7.5 1.4-11.8 2-21 .4-5.2.8-11.1 1-13 .6-5.8 1.7-24.1 3.1-52 1-19 1.1-114.3.1-133.5-2.4-47.4-2.6-51.4-3.2-71.5-1-36.5-1.8-56.2-3-75-.5-6.9-.8-19.5-.8-28 .2-31.5.3-77.8.1-87.5-.1-8.8.5-26.9 1.7-47.5 1.2-21.2 1.7-33.5 2-49.5.2-9.9.7-21.2 1-25 .4-3.9.8-9.9 1-13.5.5-7 1.3-16.8 2-24 .3-2.5.7-7.7 1-11.5.3-3.9.7-9.3 1-12 .3-2.8.7-10.6 1-17.5s.8-14.3 1-16.5c.3-2.2.7-6.7 1-10 .4-3.3.8-7.6 1-9.5.3-3.4 1-10.4 2-20.5.3-2.8.7-7 1-9.5s.7-7 1-10 .7-7.5 1-10 .7-7 1-10c.5-5.5 1.1-11.6 2-20 .3-2.5.7-6.8 1-9.5.7-7.6 5-46.3 6-55 .3-2.2.7-6 1-8.5.5-5.1 4.2-35.3 5-41.5 1-6.9 1.5-10.9 2-14.9.2-2.1.7-5.7 1-8 .5-3.9.8-6.3 2-15.9.5-4.1 1.3-9.6 2-14.7.2-1.4.7-5 1-8s.8-6.9 1-8.5c.2-1.7.7-5.3 1-8 .4-2.8.8-6.4 1.1-8 .2-1.7.6-4.6.8-6.5.4-3.3 2.2-17.1 3.1-23.5.2-1.7 1.3-10 2.5-18.5s2.3-16.6 2.5-18 .6-4.5 1-7c.5-4.1 1.1-8.4 2-15 .2-1.4.7-5 1-8 .4-3 .8-5.7 1-6 .1-.3.6-3 .9-6.1.4-3.1.8-6.5 1-7.5.4-2.3 1.6-10 2.1-13.4.2-1.4.6-4.5 1-7s.8-5.6 1-7 .9-6.1 1.5-10.5 1.4-9.6 1.6-11.5c.3-1.9.9-6.2 1.4-9.5s1.2-7.6 1.4-9.5c.3-1.9.8-5.3 1.1-7.5s1.2-8.5 2-14c1.3-9 1.8-12.5 3-20.5.2-1.4.9-6.1 1.5-10.5s1.2-9.1 1.5-10.5c.2-1.4.9-6.3 1.5-11 .5-4.7 1.2-9.4 1.4-10.5s.7-4.5 1.1-7.5c.3-3 .8-6.6 1-8s.7-4.5 1-7 1-7.2 1.5-10.5 1.1-8.3 1.5-11c.3-2.8 1.2-9.7 2-15.5 2.2-15.1 2.3-15.6 3.5-25 .6-4.7 1.3-9.6 1.5-11s.6-4.3.9-6.5.8-6 1.1-8.5.7-5.6 1-7c.2-1.4.6-4.5.9-7s.8-6.5 1.1-9 .8-6.3 1.1-8.5c.7-4.6 1.2-8.4 1.9-14 .3-2.2 1-6.8 1.5-10.3.6-3.4 1.3-8.4 1.6-11s.8-5.8.9-7.2c.2-1.4.7-5.2 1-8.5s.7-7.1 1-8.5c.2-1.4.7-4.8 1-7.5.3-2.8 1.2-11.1 2-18.5.9-7.4 1.8-16 2.1-19s.7-6 .9-6.7-.2-1.9-1.1-2.7c-1.5-1.5-17.8-11.6-18.7-11.6-.3 0-4.3 6.2-9 13.7zm1107.8 2.8-8 4.4.1 10.8c.1 11.7 1.4 51.3 1.8 57.8.2 2.2.6 9.8 1 17 .3 7.1.8 17 1.1 22 .3 4.9.7 14.2 1 20.5.4 6.3.8 14.6 1 18.5.2 3.8.7 12.4 1 19s.8 14.7 1 18c.3 3.3.7 11.4 1 18s.7 14.9 1 18.5c.2 3.6.6 11.9.9 18.5.4 6.6.9 14.7 1.1 18 .6 8.1 1.5 21.1 2 31.4.3 4.7.7 12.4 1 17.1s.8 12.1 1 16.5c.3 4.4.8 11.6 1 16 .9 13.9 1.4 22.7 2 33.7.3 5.9.8 14.6 1 19.5.6 10 1.1 19.6 2 40.3.3 8 .8 18.1 1 22.5s.7 14.1 1 21.5.8 17.1 1 21.5c.3 7.2.7 16.4 2 56 2.4 71.6 2.4 200.8 0 228.5-.2 2.5-.6 15.3-1 28.5-.6 25-1.1 34.2-2 42.8-.3 2.9-.8 7.7-1.1 10.7-.2 3-.7 7.5-1 9.9s-.7 7.8-.9 12c-.3 4.2-.7 11.2-1.1 15.6-.3 4.4-.7 10.1-.9 12.7-.6 10-1.7 22.3-2 22.8-.2.3-.6 3-1 6-.3 3-.8 6.2-1 7s-.7 4-1 7-.8 6.2-1 7-.6 4.2-1 7.5c-.3 3.3-.8 7.1-1 8.5s-.6 5.6-1 9.5c-.3 3.8-.8 8.8-1.1 11-.2 2.2-.7 6.2-1 9-.3 2.7-.7 6.1-.9 7.5-1 7.5-1.5 10.9-2 15-.5 4.4-1.3 9.9-2 15-.2 1.4-.7 4.7-1 7.5-.3 2.7-.8 6.1-1 7.5s-.7 5.2-1 8.5-.8 7.8-1 10c-.3 2.2-.7 5.8-1 8s-.7 6.9-1 10.5-.7 8.7-1 11.5c-1.1 10.8-2.9 41.4-4 67.5-.6 13.1-.6 67 0 81 .7 19.6 1.5 33.8 2 37.8.2 2 .7 7.7 1 12.7.3 4.9.8 10.3 1 12 .2 1.6.7 5.7 1 9 .4 3.3.9 7.6 1.1 9.5.3 1.9.7 5.5.9 7.9s.6 6 .9 8 .8 5.3 1.1 7.3c.3 2.1.7 5.4 1 7.3s.7 5.2 1 7.2c.6 4 5 30.6 5.9 35.8.7 3.5 1.1 5.5 3.2 15.8.8 4.2 1.8 9 2 10.5.3 1.5 1 4.5 1.6 6.7.5 2.2 1.1 4.7 1.3 5.5 1.2 6.1 7 29.5 9.5 38.5 1.7 6 3.3 11.9 3.5 13 1.7 7.3 19.5 60 23.4 69 1.1 2.6 2.6 6.3 6.7 16.3 12.5 31 39.4 81.7 57.6 109 6 9 28.1 38.9 29.7 40.2.4.3 2.5 2.9 4.8 5.7 11.5 14.8 33.5 37.2 47.3 48.4 3 2.4 5.7 4.7 6 5 .9 1 14 9.9 14.6 9.9s12.7-8.3 14.7-10c.7-.6-5.2-12.9-9.8-20.5-1-1.8-7.8-16.2-12.5-27-1-2.2-3.7-9-6-15-2.3-6.1-4.6-11.9-5-13-.8-1.9-7.1-20.7-7.7-23-.1-.6-1.8-6.4-3.8-13-5.3-17.9-14.7-56.7-15.9-66-.2-1.1-.6-2.9-.9-4-.4-1.1-.9-3.4-1.1-5-.2-1.7-1.3-8.2-2.4-14.5-2.1-11.6-2.5-13.9-3.7-22-.4-2.5-.9-5.4-1.1-6.5-.4-2.1-1.1-7.3-1.9-13.3-.6-4.7-1.5-12-2-15.2-.2-1.4-.6-5.4-1-9s-.8-7.6-1-9-.6-5.7-1-9.5c-.3-3.9-.8-8.6-1-10.5s-.7-7.8-1-13c-.4-5.2-.8-11.5-1-13.9-2.5-28.1-2.5-130.8 0-160.1.2-3 .7-9.6 1-14.5.3-5 .7-10.4 1-12 .2-1.7.7-7.5 1-13 .4-5.5.8-10.7 1-11.5s.7-6 1-11.5 1-12.5 1.5-15.5 1.2-8.2 1.5-11.5.7-6.7 1-7.5c.2-.8.6-4.2 1-7.5.3-3.3.8-6.7 1-7.5s.6-4.2 1-7.5c1.1-11.5 6.9-50.5 8-54.5.2-.8.7-3.5 1-6 .6-4.4 4.7-26.9 8.1-44 .9-4.7 1.8-9.6 1.9-11 .2-1.4.6-3.6.9-5 1.1-5.1 1.6-7.6 2.2-11.5.3-2.2.7-4.7.9-5.5s.7-3.1 1-5 2.6-14.8 5-28.5c2.4-13.8 4.9-27.9 5.4-31.5.6-3.6 1.3-7.6 1.6-9 .2-1.3.7-4 1-6s.8-4.7 1-6c.3-1.4.8-4.1 1-6 .3-1.9.7-4.4 1-5.5.6-3 1.8-13.8 3-26.5.3-3 .7-7.3 1-9.5.2-2.2.7-7.2 1-11 .3-3.9.8-8.8 1-11s.7-8.5 1-14c.4-5.5.8-11.1 1.1-12.5 2.5-15.7 2.5-120.8-.1-160-.2-2.5-.6-9-.9-14.5-1.8-31.2-2.4-38.6-3.2-46.5-.3-3-.7-6.6-.9-7.9-.3-1.4-.7-5.4-1.1-9-.3-3.6-.8-7.4-1-8.5s-.6-5.2-1-9.1c-.3-3.8-.7-7.7-.9-8.5s-.7-3.8-1-6.5c-.3-2.8-1-7.9-1.5-11.5s-1.2-8.7-1.5-11.4-.8-5.2-.9-5.5c-.2-.3-.7-3.3-1-6.6s-.8-7.1-1-8.5c-.3-1.4-1-6.1-1.6-10.5s-1.3-9.1-1.6-10.5c-.2-1.4-.9-5.4-1.4-9-.6-3.6-1.3-7.9-1.6-9.5-.6-3.6-6.2-35.2-6.8-38-.2-1.1-1.1-5.2-1.9-9-.9-3.9-1.9-8.8-2.3-11s-.8-4.6-1-5.4c-.6-2.9-4.7-21-7-30.1-1.3-5.2-2.5-10.9-2.9-12.7-.3-1.8-.9-4.3-1.5-5.7-.5-1.5-.8-2.6-.5-2.6.2 0-.1-1.5-.6-3.3-.5-1.7-2.3-9.1-4-16.2-4-16.7-5.4-22.2-12.4-47.5-1.4-5.2-2.8-10.2-2.9-11-.7-3-3.9-13.8-7.1-24.5-10.6-34.6-15.7-50.8-18.1-57.5-1.4-4.1-6.1-17.6-10.4-30s-11.6-32.4-16.3-44.5c-9-23.6-15.5-39.5-22.1-54.8-.8-1.7-2.8-6.6-4.4-10.7-7.9-19.7-53.2-115.4-54.4-114.9-.2 0-3.9 2-8.3 4.4z"/></svg>